<svg width="155" height="46" viewBox="0 0 155 46" fill="none" xmlns="http://www.w3.org/2000/svg">
<path d="M22.736 16.28H15.44L14.096 20H11.792L17.84 3.368H20.36L26.384 20H24.08L22.736 16.28ZM22.112 14.504L19.088 6.056L16.064 14.504H22.112ZM31.2039 8.984C31.5879 8.232 32.1319 7.648 32.8359 7.232C33.5559 6.816 34.4279 6.608 35.4519 6.608V8.864H34.8759C32.4279 8.864 31.2039 10.192 31.2039 12.848V20H29.0199V6.848H31.2039V8.984ZM39.101 4.712C38.685 4.712 38.333 4.568 38.045 4.28C37.757 3.992 37.613 3.64 37.613 3.224C37.613 2.808 37.757 2.456 38.045 2.168C38.333 1.88 38.685 1.736 39.101 1.736C39.501 1.736 39.837 1.88 40.109 2.168C40.397 2.456 40.541 2.808 40.541 3.224C40.541 3.64 40.397 3.992 40.109 4.28C39.837 4.568 39.501 4.712 39.101 4.712ZM40.157 6.848V20H37.973V6.848H40.157ZM46.0633 2.24V20H43.8793V2.24H46.0633ZM54.4415 20.216C53.4335 20.216 52.5295 20.048 51.7295 19.712C50.9295 19.36 50.2975 18.88 49.8335 18.272C49.3695 17.648 49.1135 16.936 49.0655 16.136H51.3215C51.3855 16.792 51.6895 17.328 52.2335 17.744C52.7935 18.16 53.5215 18.368 54.4175 18.368C55.2495 18.368 55.9055 18.184 56.3855 17.816C56.8655 17.448 57.1055 16.984 57.1055 16.424C57.1055 15.848 56.8495 15.424 56.3375 15.152C55.8255 14.864 55.0335 14.584 53.9615 14.312C52.9855 14.056 52.1855 13.8 51.5615 13.544C50.9535 13.272 50.4255 12.88 49.9775 12.368C49.5455 11.84 49.3295 11.152 49.3295 10.304C49.3295 9.632 49.5295 9.016 49.9295 8.456C50.3295 7.896 50.8975 7.456 51.6335 7.136C52.3695 6.8 53.2095 6.632 54.1535 6.632C55.6095 6.632 56.7855 7 57.6815 7.736C58.5775 8.472 59.0575 9.48 59.1215 10.76H56.9375C56.8895 10.072 56.6095 9.52 56.0975 9.104C55.6015 8.688 54.9295 8.48 54.0815 8.48C53.2975 8.48 52.6735 8.648 52.2095 8.984C51.7455 9.32 51.5135 9.76 51.5135 10.304C51.5135 10.736 51.6495 11.096 51.9215 11.384C52.2095 11.656 52.5615 11.88 52.9775 12.056C53.4095 12.216 54.0015 12.4 54.7535 12.608C55.6975 12.864 56.4655 13.12 57.0575 13.376C57.6495 13.616 58.1535 13.984 58.5695 14.48C59.0015 14.976 59.2255 15.624 59.2415 16.424C59.2415 17.144 59.0415 17.792 58.6415 18.368C58.2415 18.944 57.6735 19.4 56.9375 19.736C56.2175 20.056 55.3855 20.216 54.4415 20.216ZM68.0606 20.216C66.8286 20.216 65.7086 19.936 64.7006 19.376C63.7086 18.816 62.9246 18.024 62.3486 17C61.7886 15.96 61.5086 14.76 61.5086 13.4C61.5086 12.056 61.7966 10.872 62.3726 9.848C62.9646 8.808 63.7646 8.016 64.7726 7.472C65.7806 6.912 66.9086 6.632 68.1566 6.632C69.4046 6.632 70.5326 6.912 71.5406 7.472C72.5486 8.016 73.3406 8.8 73.9166 9.824C74.5086 10.848 74.8046 12.04 74.8046 13.4C74.8046 14.76 74.5006 15.96 73.8926 17C73.3006 18.024 72.4926 18.816 71.4686 19.376C70.4446 19.936 69.3086 20.216 68.0606 20.216ZM68.0606 18.296C68.8446 18.296 69.5806 18.112 70.2686 17.744C70.9566 17.376 71.5086 16.824 71.9246 16.088C72.3566 15.352 72.5726 14.456 72.5726 13.4C72.5726 12.344 72.3646 11.448 71.9486 10.712C71.5326 9.976 70.9886 9.432 70.3166 9.08C69.6446 8.712 68.9166 8.528 68.1326 8.528C67.3326 8.528 66.5966 8.712 65.9246 9.08C65.2686 9.432 64.7406 9.976 64.3406 10.712C63.9406 11.448 63.7406 12.344 63.7406 13.4C63.7406 14.472 63.9326 15.376 64.3166 16.112C64.7166 16.848 65.2446 17.4 65.9006 17.768C66.5566 18.12 67.2766 18.296 68.0606 18.296ZM84.0841 6.608C85.6841 6.608 86.9801 7.096 87.9721 8.072C88.9641 9.032 89.4601 10.424 89.4601 12.248V20H87.3001V12.56C87.3001 11.248 86.9721 10.248 86.3161 9.56C85.6601 8.856 84.7641 8.504 83.6281 8.504C82.4761 8.504 81.5561 8.864 80.8681 9.584C80.1961 10.304 79.8601 11.352 79.8601 12.728V20H77.6761V6.848H79.8601V8.72C80.2921 8.048 80.8761 7.528 81.6121 7.16C82.3641 6.792 83.1881 6.608 84.0841 6.608ZM22.304 24.272V26.048H15.032V31.688H20.936V33.464H15.032V41H12.848V24.272H22.304ZM27.1258 23.24V41H24.9418V23.24H27.1258ZM36.584 41.216C35.352 41.216 34.232 40.936 33.224 40.376C32.232 39.816 31.448 39.024 30.872 38C30.312 36.96 30.032 35.76 30.032 34.4C30.032 33.056 30.32 31.872 30.896 30.848C31.488 29.808 32.288 29.016 33.296 28.472C34.304 27.912 35.432 27.632 36.68 27.632C37.928 27.632 39.056 27.912 40.064 28.472C41.072 29.016 41.864 29.8 42.44 30.824C43.032 31.848 43.328 33.04 43.328 34.4C43.328 35.76 43.024 36.96 42.416 38C41.824 39.024 41.016 39.816 39.992 40.376C38.968 40.936 37.832 41.216 36.584 41.216ZM36.584 39.296C37.368 39.296 38.104 39.112 38.792 38.744C39.48 38.376 40.032 37.824 40.448 37.088C40.88 36.352 41.096 35.456 41.096 34.4C41.096 33.344 40.888 32.448 40.472 31.712C40.056 30.976 39.512 30.432 38.84 30.08C38.168 29.712 37.44 29.528 36.656 29.528C35.856 29.528 35.12 29.712 34.448 30.08C33.792 30.432 33.264 30.976 32.864 31.712C32.464 32.448 32.264 33.344 32.264 34.4C32.264 35.472 32.456 36.376 32.84 37.112C33.24 37.848 33.768 38.4 34.424 38.768C35.08 39.12 35.8 39.296 36.584 39.296ZM48.3836 29.984C48.7676 29.232 49.3116 28.648 50.0156 28.232C50.7356 27.816 51.6076 27.608 52.6316 27.608V29.864H52.0556C49.6076 29.864 48.3836 31.192 48.3836 33.848V41H46.1996V27.848H48.3836V29.984ZM67.1527 33.92C67.1527 34.336 67.1287 34.776 67.0807 35.24H56.5687C56.6487 36.536 57.0887 37.552 57.8887 38.288C58.7047 39.008 59.6887 39.368 60.8407 39.368C61.7847 39.368 62.5687 39.152 63.1927 38.72C63.8327 38.272 64.2807 37.68 64.5367 36.944H66.8887C66.5367 38.208 65.8327 39.24 64.7767 40.04C63.7207 40.824 62.4087 41.216 60.8407 41.216C59.5927 41.216 58.4727 40.936 57.4807 40.376C56.5047 39.816 55.7367 39.024 55.1767 38C54.6167 36.96 54.3367 35.76 54.3367 34.4C54.3367 33.04 54.6087 31.848 55.1527 30.824C55.6967 29.8 56.4567 29.016 57.4327 28.472C58.4247 27.912 59.5607 27.632 60.8407 27.632C62.0887 27.632 63.1927 27.904 64.1527 28.448C65.1127 28.992 65.8487 29.744 66.3607 30.704C66.8887 31.648 67.1527 32.72 67.1527 33.92ZM64.8967 33.464C64.8967 32.632 64.7127 31.92 64.3447 31.328C63.9767 30.72 63.4727 30.264 62.8327 29.96C62.2087 29.64 61.5127 29.48 60.7447 29.48C59.6407 29.48 58.6967 29.832 57.9127 30.536C57.1447 31.24 56.7047 32.216 56.5927 33.464H64.8967ZM76.4435 27.608C78.0435 27.608 79.3395 28.096 80.3315 29.072C81.3235 30.032 81.8195 31.424 81.8195 33.248V41H79.6595V33.56C79.6595 32.248 79.3315 31.248 78.6755 30.56C78.0195 29.856 77.1235 29.504 75.9875 29.504C74.8355 29.504 73.9155 29.864 73.2275 30.584C72.5555 31.304 72.2195 32.352 72.2195 33.728V41H70.0355V27.848H72.2195V29.72C72.6515 29.048 73.2355 28.528 73.9715 28.16C74.7235 27.792 75.5475 27.608 76.4435 27.608ZM84.5711 34.4C84.5711 33.04 84.8431 31.856 85.3871 30.848C85.9311 29.824 86.6831 29.032 87.6431 28.472C88.6191 27.912 89.7311 27.632 90.9791 27.632C92.5951 27.632 93.9231 28.024 94.9631 28.808C96.0191 29.592 96.7151 30.68 97.0511 32.072H94.6991C94.4751 31.272 94.0351 30.64 93.3791 30.176C92.7391 29.712 91.9391 29.48 90.9791 29.48C89.7311 29.48 88.7231 29.912 87.9551 30.776C87.1871 31.624 86.8031 32.832 86.8031 34.4C86.8031 35.984 87.1871 37.208 87.9551 38.072C88.7231 38.936 89.7311 39.368 90.9791 39.368C91.9391 39.368 92.7391 39.144 93.3791 38.696C94.0191 38.248 94.4591 37.608 94.6991 36.776H97.0511C96.6991 38.12 95.9951 39.2 94.9391 40.016C93.8831 40.816 92.5631 41.216 90.9791 41.216C89.7311 41.216 88.6191 40.936 87.6431 40.376C86.6831 39.816 85.9311 39.024 85.3871 38C84.8431 36.976 84.5711 35.776 84.5711 34.4ZM101.093 25.712C100.677 25.712 100.325 25.568 100.037 25.28C99.7492 24.992 99.6052 24.64 99.6052 24.224C99.6052 23.808 99.7492 23.456 100.037 23.168C100.325 22.88 100.677 22.736 101.093 22.736C101.493 22.736 101.829 22.88 102.101 23.168C102.389 23.456 102.533 23.808 102.533 24.224C102.533 24.64 102.389 24.992 102.101 25.28C101.829 25.568 101.493 25.712 101.093 25.712ZM102.149 27.848V41H99.9652V27.848H102.149ZM111.607 41.216C110.375 41.216 109.255 40.936 108.247 40.376C107.255 39.816 106.471 39.024 105.895 38C105.335 36.96 105.055 35.76 105.055 34.4C105.055 33.056 105.343 31.872 105.919 30.848C106.511 29.808 107.311 29.016 108.319 28.472C109.327 27.912 110.455 27.632 111.703 27.632C112.951 27.632 114.079 27.912 115.087 28.472C116.095 29.016 116.887 29.8 117.463 30.824C118.055 31.848 118.351 33.04 118.351 34.4C118.351 35.76 118.047 36.96 117.439 38C116.847 39.024 116.039 39.816 115.015 40.376C113.991 40.936 112.855 41.216 111.607 41.216ZM111.607 39.296C112.391 39.296 113.127 39.112 113.815 38.744C114.503 38.376 115.055 37.824 115.471 37.088C115.903 36.352 116.119 35.456 116.119 34.4C116.119 33.344 115.911 32.448 115.495 31.712C115.079 30.976 114.535 30.432 113.863 30.08C113.191 29.712 112.463 29.528 111.679 29.528C110.879 29.528 110.143 29.712 109.471 30.08C108.815 30.432 108.287 30.976 107.887 31.712C107.487 32.448 107.287 33.344 107.287 34.4C107.287 35.472 107.479 36.376 107.863 37.112C108.263 37.848 108.791 38.4 109.447 38.768C110.103 39.12 110.823 39.296 111.607 39.296Z" fill="white"/>
<line x1="2" x2="2" y2="46" stroke="#5280E2" stroke-width="4"/>
</svg>
